<svg width="32" height="32" viewBox="0 0 32 32" fill="none" xmlns="http://www.w3.org/2000/svg">
<g clip-path="url(#clip0_112620_281)">
<path d="M0.71106 4.55111C0.71106 2.95807 0.71106 2.16155 1.02109 1.55309C1.29379 1.01788 1.72894 0.582732 2.26415 0.310026C2.87261 0 3.66913 0 5.26217 0H15.2888C16.9398 0 17.7653 0 18.4606 0.0684839C25.213 0.733536 30.5553 6.07582 31.2204 12.8282C31.2888 13.5235 31.2888 14.349 31.2888 16V16C31.2888 17.651 31.2888 18.4765 31.2204 19.1718C30.5553 25.9242 25.213 31.2665 18.4606 31.9315C17.7653 32 16.9398 32 15.2888 32H5.26217C3.66913 32 2.87261 32 2.26415 31.69C1.72894 31.4173 1.29379 30.9821 1.02109 30.4469C0.71106 29.8384 0.71106 29.0419 0.71106 27.4489V4.55111Z" fill="#FF5C00"/>
</g>
<defs>
<clipPath id="clip0_112620_281">
<rect width="32" height="32" fill="white"/>
</clipPath>
</defs>
</svg>
